<?xml version="1.0" encoding="utf-8"?>
<svg xmlns="http://www.w3.org/2000/svg" version="1.1" width="1000" height="1000">

<line x1="0" y1="0" x2="1000" y2="0" stroke="green" />
<line x1="0" y1="58" x2="1000" y2="58" stroke="green" />
<line x1="0" y1="116" x2="1000" y2="116" stroke="green" />
<line x1="0" y1="174" x2="1000" y2="174" stroke="green" />
<line x1="0" y1="232" x2="1000" y2="232" stroke="green" />
<line x1="0" y1="290" x2="1000" y2="290" stroke="green" />
<line x1="0" y1="348" x2="1000" y2="348" stroke="green" />
<line x1="0" y1="406" x2="1000" y2="406" stroke="green" />
<line x1="0" y1="464" x2="1000" y2="464" stroke="green" />
<line x1="0" y1="522" x2="1000" y2="522" stroke="green" />
<line x1="0" y1="580" x2="1000" y2="580" stroke="green" />
<line x1="0" y1="638" x2="1000" y2="638" stroke="green" />
<line x1="0" y1="696" x2="1000" y2="696" stroke="green" />
<line x1="0" y1="754" x2="1000" y2="754" stroke="green" />
<line x1="0" y1="812" x2="1000" y2="812" stroke="green" />
<line x1="0" y1="870" x2="1000" y2="870" stroke="green" />
<line x1="0" y1="928" x2="1000" y2="928" stroke="green" />
<line x1="0" y1="986" x2="1000" y2="986" stroke="green" />
<line x1="0" y1="0" x2="0" y2="1000" stroke="green" />
<line x1="58" y1="0" x2="58" y2="1000" stroke="green" />
<line x1="116" y1="0" x2="116" y2="1000" stroke="green" />
<line x1="174" y1="0" x2="174" y2="1000" stroke="green" />
<line x1="232" y1="0" x2="232" y2="1000" stroke="green" />
<line x1="290" y1="0" x2="290" y2="1000" stroke="green" />
<line x1="348" y1="0" x2="348" y2="1000" stroke="green" />
<line x1="406" y1="0" x2="406" y2="1000" stroke="green" />
<line x1="464" y1="0" x2="464" y2="1000" stroke="green" />
<line x1="522" y1="0" x2="522" y2="1000" stroke="green" />
<line x1="580" y1="0" x2="580" y2="1000" stroke="green" />
<line x1="638" y1="0" x2="638" y2="1000" stroke="green" />
<line x1="696" y1="0" x2="696" y2="1000" stroke="green" />
<line x1="754" y1="0" x2="754" y2="1000" stroke="green" />
<line x1="812" y1="0" x2="812" y2="1000" stroke="green" />
<line x1="870" y1="0" x2="870" y2="1000" stroke="green" />
<line x1="928" y1="0" x2="928" y2="1000" stroke="green" />
<line x1="986" y1="0" x2="986" y2="1000" stroke="green" />
<line x1="58" y1="232" x2="58" y2="580" stroke="black" />
<line x1="58" y1="232" x2="174" y2="232" stroke="black" />
<line x1="58" y1="580" x2="232" y2="464" stroke="black" />
<line x1="58" y1="580" x2="174" y2="812" stroke="black" />
<line x1="174" y1="812" x2="290" y2="870" stroke="black" />
<line x1="290" y1="870" x2="232" y2="464" stroke="black" />
<line x1="174" y1="232" x2="232" y2="464" stroke="black" />
<line x1="232" y1="464" x2="348" y2="348" stroke="black" />
<line x1="348" y1="116" x2="348" y2="58" stroke="black" />
<line x1="348" y1="116" x2="464" y2="116" stroke="black" />
<line x1="348" y1="116" x2="522" y2="232" stroke="black" />
<line x1="406" y1="232" x2="348" y2="116" stroke="black" />
<line x1="406" y1="232" x2="522" y2="232" stroke="black" />
<line x1="348" y1="348" x2="406" y2="232" stroke="black" />
<line x1="348" y1="348" x2="522" y2="232" stroke="black" />
<line x1="348" y1="348" x2="522" y2="406" stroke="black" />
<line x1="522" y1="232" x2="522" y2="406" stroke="black" />
<line x1="638" y1="348" x2="522" y2="406" stroke="black" />
<line x1="522" y1="232" x2="638" y2="348" stroke="black" />
<line x1="638" y1="290" x2="638" y2="348" stroke="black" />
<line x1="522" y1="232" x2="638" y2="290" stroke="black" />
<line x1="464" y1="116" x2="522" y2="232" stroke="black" />
<line x1="348" y1="58" x2="464" y2="116" stroke="black" />
  

<defs>
    <radialGradient id="redball" cx="30%" cy="30%" r="100%" fx="30%" fy="30%">
      <stop offset="0%" style="stop-color:rgb(255,250,250)" />
      <stop offset="3%" style="stop-color:rgb(255,250,250)" />
      <stop offset="7%" style="stop-color:rgb(255,160,160)" />
      <stop offset="70%" style="stop-color:rgb(255,0,0)" />
      <stop offset="100%" style="stop-color:rgb(255,0,0)" />
    </radialGradient>
    <radialGradient id="greenball" cx="30%" cy="30%" r="100%" fx="30%" fy="30%">
      <stop offset="0%" style="stop-color:rgb(250,255,250)" />
      <stop offset="3%" style="stop-color:rgb(250,255,250)" />
      <stop offset="7%" style="stop-color:rgb(160,255,160)" />
      <stop offset="70%" style="stop-color:rgb(0,255,0)" />
      <stop offset="100%" style="stop-color:rgb(0,255,0)" />
    </radialGradient>
    <radialGradient id="blueball" cx="30%" cy="30%" r="100%" fx="30%" fy="30%">
      <stop offset="0%" style="stop-color:rgb(250,250,255)" />
      <stop offset="3%" style="stop-color:rgb(250,250,255)" />
      <stop offset="7%" style="stop-color:rgb(160,160,255)" />
      <stop offset="70%" style="stop-color:rgb(0,0,255)" />
      <stop offset="100%" style="stop-color:rgb(0,255,0)" />
    </radialGradient>
    <radialGradient id="yellowball" cx="30%" cy="30%" r="100%" fx="30%" fy="30%">
      <stop offset="0%" style="stop-color:rgb(255,255,250)" />
      <stop offset="3%" style="stop-color:rgb(255,255,250)" />
      <stop offset="7%" style="stop-color:rgb(255,255,160)" />
      <stop offset="70%" style="stop-color:rgb(255,255,0)" />
      <stop offset="100%" style="stop-color:rgb(255,255,0)" />
    </radialGradient>
    <radialGradient id="greyball" cx="30%" cy="30%" r="100%" fx="30%" fy="30%">
      <stop offset="0%" style="stop-color:rgb(250,250,250)" />
      <stop offset="3%" style="stop-color:rgb(250,250,250)" />
      <stop offset="7%" style="stop-color:rgb(160,160,160)" />
      <stop offset="70%" style="stop-color:rgb(100,100,100)" />
      <stop offset="100%" style="stop-color:rgb(100,100,100)" />
    </radialGradient>
  </defs>


</svg>
